  0
SECTION
  2
HEADER
  9
$ANGBASE
  50
0.0
  9
$ANGDIR
  70
1
  9
$MEASUREMENT
  70
1
  0
ENDSEC
  0
SECTION
  2
TABLES
  0
TABLE
  2
LTYPE
  70
4
  0
LTYPE
  5
40F
  2
CONTINUOUS
  70
0
  3
Solid line
  72
65
  73
0
  40
0.0
  0
LTYPE
  5
410
  2
DASHDOT
 70
0
  3
Dash Dot ____ _ ____ _
 72
65
 73
4
 40
2.0
 49
1.25
 49
-0.25
 49
0.25
 49
-0.25
  0
LTYPE
  5
411
  2
DASHED
 70
0
  3
Dashed __ __ __ __ __
 72
65
 73
2
 40
0.75
 49
0.5
 49
-0.25
  0
LTYPE
  5
43B
  2
DOTTED
 70
0
  3
Dotted .  .  .  .
 72
65
 73
2
 40
0.2
 49
0.0
 49
-0.2
  0
ENDTAB
  0
TABLE
  2
STYLE
  70
4
  0
STYLE
  2
KICAD
  70
0
  40
0
  41
1
  42
1
  50
0
  71
0
  3
isocp.shx
  0
STYLE
  2
KICADB
  70
0
  40
0
  41
1
  42
1
  50
0
  71
0
  3
isocp.shx
  0
STYLE
  2
KICADI
  70
0
  40
0
  41
1
  42
1
  50
15
  71
0
  3
isocp.shx
  0
STYLE
  2
KICADBI
  70
0
  40
0
  41
1
  42
1
  50
15
  71
0
  3
isocp.shx
  0
ENDTAB
  0
TABLE
  2
LAYER
  70
1
  0
LAYER
  2
BLACK
  70
0
  62
7
  6
CONTINUOUS
  0
ENDTAB
  0
ENDSEC
  0
SECTION
  2
ENTITIES
0
CIRCLE
8
BLACK
10
-6.22
20
-51.09
40
1.1
0
CIRCLE
8
BLACK
10
-26.395
20
-51.09
40
1.1
0
LINE
8
BLACK
6
CONTINUOUS
10
-21.1164
20
-11.8576
11
-21.0687
21
-11.81
0
LINE
8
BLACK
6
CONTINUOUS
10
-21.0687
20
-11.81
11
-20.9735
21
-11.7624
0
LINE
8
BLACK
6
CONTINUOUS
10
-20.9735
20
-11.7624
11
-20.7354
21
-11.7624
0
LINE
8
BLACK
6
CONTINUOUS
10
-20.7354
20
-11.7624
11
-20.6402
21
-11.81
0
LINE
8
BLACK
6
CONTINUOUS
10
-20.6402
20
-11.81
11
-20.5925
21
-11.8576
0
LINE
8
BLACK
6
CONTINUOUS
10
-20.5925
20
-11.8576
11
-20.5449
21
-11.9529
0
LINE
8
BLACK
6
CONTINUOUS
10
-20.5449
20
-11.9529
11
-20.5449
21
-12.0481
0
LINE
8
BLACK
6
CONTINUOUS
10
-20.5449
20
-12.0481
11
-20.5925
21
-12.191
0
LINE
8
BLACK
6
CONTINUOUS
10
-20.5925
20
-12.191
11
-21.164
21
-12.7624
0
LINE
8
BLACK
6
CONTINUOUS
10
-21.164
20
-12.7624
11
-20.5449
21
-12.7624
0
LINE
8
BLACK
6
CONTINUOUS
10
-19.6878
20
-11.7624
11
-19.8783
21
-11.7624
0
LINE
8
BLACK
6
CONTINUOUS
10
-19.8783
20
-11.7624
11
-19.9735
21
-11.81
0
LINE
8
BLACK
6
CONTINUOUS
10
-19.9735
20
-11.81
11
-20.0211
21
-11.8576
0
LINE
8
BLACK
6
CONTINUOUS
10
-20.0211
20
-11.8576
11
-20.1164
21
-12.0005
0
LINE
8
BLACK
6
CONTINUOUS
10
-20.1164
20
-12.0005
11
-20.164
21
-12.191
0
LINE
8
BLACK
6
CONTINUOUS
10
-20.164
20
-12.191
11
-20.164
21
-12.5719
0
LINE
8
BLACK
6
CONTINUOUS
10
-20.164
20
-12.5719
11
-20.1164
21
-12.6671
0
LINE
8
BLACK
6
CONTINUOUS
10
-20.1164
20
-12.6671
11
-20.0687
21
-12.7148
0
LINE
8
BLACK
6
CONTINUOUS
10
-20.0687
20
-12.7148
11
-19.9735
21
-12.7624
0
LINE
8
BLACK
6
CONTINUOUS
10
-19.9735
20
-12.7624
11
-19.783
21
-12.7624
0
LINE
8
BLACK
6
CONTINUOUS
10
-19.783
20
-12.7624
11
-19.6878
21
-12.7148
0
LINE
8
BLACK
6
CONTINUOUS
10
-19.6878
20
-12.7148
11
-19.6402
21
-12.6671
0
LINE
8
BLACK
6
CONTINUOUS
10
-19.6402
20
-12.6671
11
-19.5925
21
-12.5719
0
LINE
8
BLACK
6
CONTINUOUS
10
-19.5925
20
-12.5719
11
-19.5925
21
-12.3338
0
LINE
8
BLACK
6
CONTINUOUS
10
-19.5925
20
-12.3338
11
-19.6402
21
-12.2386
0
LINE
8
BLACK
6
CONTINUOUS
10
-19.6402
20
-12.2386
11
-19.6878
21
-12.191
0
LINE
8
BLACK
6
CONTINUOUS
10
-19.6878
20
-12.191
11
-19.783
21
-12.1433
0
LINE
8
BLACK
6
CONTINUOUS
10
-19.783
20
-12.1433
11
-19.9735
21
-12.1433
0
LINE
8
BLACK
6
CONTINUOUS
10
-19.9735
20
-12.1433
11
-20.0687
21
-12.191
0
LINE
8
BLACK
6
CONTINUOUS
10
-20.0687
20
-12.191
11
-20.1164
21
-12.2386
0
LINE
8
BLACK
6
CONTINUOUS
10
-20.1164
20
-12.2386
11
-20.164
21
-12.3338
0
LINE
8
BLACK
6
CONTINUOUS
10
-19.164
20
-12.6671
11
-19.1164
21
-12.7148
0
LINE
8
BLACK
6
CONTINUOUS
10
-19.1164
20
-12.7148
11
-19.164
21
-12.7624
0
LINE
8
BLACK
6
CONTINUOUS
10
-19.164
20
-12.7624
11
-19.2116
21
-12.7148
0
LINE
8
BLACK
6
CONTINUOUS
10
-19.2116
20
-12.7148
11
-19.164
21
-12.6671
0
LINE
8
BLACK
6
CONTINUOUS
10
-19.164
20
-12.6671
11
-19.164
21
-12.7624
0
LINE
8
BLACK
6
CONTINUOUS
10
-18.2592
20
-11.7624
11
-18.4497
21
-11.7624
0
LINE
8
BLACK
6
CONTINUOUS
10
-18.4497
20
-11.7624
11
-18.5449
21
-11.81
0
LINE
8
BLACK
6
CONTINUOUS
10
-18.5449
20
-11.81
11
-18.5925
21
-11.8576
0
LINE
8
BLACK
6
CONTINUOUS
10
-18.5925
20
-11.8576
11
-18.6878
21
-12.0005
0
LINE
8
BLACK
6
CONTINUOUS
10
-18.6878
20
-12.0005
11
-18.7354
21
-12.191
0
LINE
8
BLACK
6
CONTINUOUS
10
-18.7354
20
-12.191
11
-18.7354
21
-12.5719
0
LINE
8
BLACK
6
CONTINUOUS
10
-18.7354
20
-12.5719
11
-18.6878
21
-12.6671
0
LINE
8
BLACK
6
CONTINUOUS
10
-18.6878
20
-12.6671
11
-18.6402
21
-12.7148
0
LINE
8
BLACK
6
CONTINUOUS
10
-18.6402
20
-12.7148
11
-18.5449
21
-12.7624
0
LINE
8
BLACK
6
CONTINUOUS
10
-18.5449
20
-12.7624
11
-18.3545
21
-12.7624
0
LINE
8
BLACK
6
CONTINUOUS
10
-18.3545
20
-12.7624
11
-18.2592
21
-12.7148
0
LINE
8
BLACK
6
CONTINUOUS
10
-18.2592
20
-12.7148
11
-18.2116
21
-12.6671
0
LINE
8
BLACK
6
CONTINUOUS
10
-18.2116
20
-12.6671
11
-18.164
21
-12.5719
0
LINE
8
BLACK
6
CONTINUOUS
10
-18.164
20
-12.5719
11
-18.164
21
-12.3338
0
LINE
8
BLACK
6
CONTINUOUS
10
-18.164
20
-12.3338
11
-18.2116
21
-12.2386
0
LINE
8
BLACK
6
CONTINUOUS
10
-18.2116
20
-12.2386
11
-18.2592
21
-12.191
0
LINE
8
BLACK
6
CONTINUOUS
10
-18.2592
20
-12.191
11
-18.3545
21
-12.1433
0
LINE
8
BLACK
6
CONTINUOUS
10
-18.3545
20
-12.1433
11
-18.5449
21
-12.1433
0
LINE
8
BLACK
6
CONTINUOUS
10
-18.5449
20
-12.1433
11
-18.6402
21
-12.191
0
LINE
8
BLACK
6
CONTINUOUS
10
-18.6402
20
-12.191
11
-18.6878
21
-12.2386
0
LINE
8
BLACK
6
CONTINUOUS
10
-18.6878
20
-12.2386
11
-18.7354
21
-12.3338
0
LINE
8
BLACK
6
CONTINUOUS
10
-17.5925
20
-12.191
11
-17.6878
21
-12.1433
0
LINE
8
BLACK
6
CONTINUOUS
10
-17.6878
20
-12.1433
11
-17.7354
21
-12.0957
0
LINE
8
BLACK
6
CONTINUOUS
10
-17.7354
20
-12.0957
11
-17.783
21
-12.0005
0
LINE
8
BLACK
6
CONTINUOUS
10
-17.783
20
-12.0005
11
-17.783
21
-11.9529
0
LINE
8
BLACK
6
CONTINUOUS
10
-17.783
20
-11.9529
11
-17.7354
21
-11.8576
0
LINE
8
BLACK
6
CONTINUOUS
10
-17.7354
20
-11.8576
11
-17.6878
21
-11.81
0
LINE
8
BLACK
6
CONTINUOUS
10
-17.6878
20
-11.81
11
-17.5925
21
-11.7624
0
LINE
8
BLACK
6
CONTINUOUS
10
-17.5925
20
-11.7624
11
-17.4021
21
-11.7624
0
LINE
8
BLACK
6
CONTINUOUS
10
-17.4021
20
-11.7624
11
-17.3068
21
-11.81
0
LINE
8
BLACK
6
CONTINUOUS
10
-17.3068
20
-11.81
11
-17.2592
21
-11.8576
0
LINE
8
BLACK
6
CONTINUOUS
10
-17.2592
20
-11.8576
11
-17.2116
21
-11.9529
0
LINE
8
BLACK
6
CONTINUOUS
10
-17.2116
20
-11.9529
11
-17.2116
21
-12.0005
0
LINE
8
BLACK
6
CONTINUOUS
10
-17.2116
20
-12.0005
11
-17.2592
21
-12.0957
0
LINE
8
BLACK
6
CONTINUOUS
10
-17.2592
20
-12.0957
11
-17.3068
21
-12.1433
0
LINE
8
BLACK
6
CONTINUOUS
10
-17.3068
20
-12.1433
11
-17.4021
21
-12.191
0
LINE
8
BLACK
6
CONTINUOUS
10
-17.4021
20
-12.191
11
-17.5925
21
-12.191
0
LINE
8
BLACK
6
CONTINUOUS
10
-17.5925
20
-12.191
11
-17.6878
21
-12.2386
0
LINE
8
BLACK
6
CONTINUOUS
10
-17.6878
20
-12.2386
11
-17.7354
21
-12.2862
0
LINE
8
BLACK
6
CONTINUOUS
10
-17.7354
20
-12.2862
11
-17.783
21
-12.3814
0
LINE
8
BLACK
6
CONTINUOUS
10
-17.783
20
-12.3814
11
-17.783
21
-12.5719
0
LINE
8
BLACK
6
CONTINUOUS
10
-17.783
20
-12.5719
11
-17.7354
21
-12.6671
0
LINE
8
BLACK
6
CONTINUOUS
10
-17.7354
20
-12.6671
11
-17.6878
21
-12.7148
0
LINE
8
BLACK
6
CONTINUOUS
10
-17.6878
20
-12.7148
11
-17.5925
21
-12.7624
0
LINE
8
BLACK
6
CONTINUOUS
10
-17.5925
20
-12.7624
11
-17.4021
21
-12.7624
0
LINE
8
BLACK
6
CONTINUOUS
10
-17.4021
20
-12.7624
11
-17.3068
21
-12.7148
0
LINE
8
BLACK
6
CONTINUOUS
10
-17.3068
20
-12.7148
11
-17.2592
21
-12.6671
0
LINE
8
BLACK
6
CONTINUOUS
10
-17.2592
20
-12.6671
11
-17.2116
21
-12.5719
0
LINE
8
BLACK
6
CONTINUOUS
10
-17.2116
20
-12.5719
11
-17.2116
21
-12.3814
0
LINE
8
BLACK
6
CONTINUOUS
10
-17.2116
20
-12.3814
11
-17.2592
21
-12.2862
0
LINE
8
BLACK
6
CONTINUOUS
10
-17.2592
20
-12.2862
11
-17.3068
21
-12.2386
0
LINE
8
BLACK
6
CONTINUOUS
10
-17.3068
20
-12.2386
11
-17.4021
21
-12.191
0
LINE
8
BLACK
6
CONTINUOUS
10
-16.8783
20
-11.7624
11
-16.2592
21
-11.7624
0
LINE
8
BLACK
6
CONTINUOUS
10
-16.2592
20
-11.7624
11
-16.5925
21
-12.1433
0
LINE
8
BLACK
6
CONTINUOUS
10
-16.5925
20
-12.1433
11
-16.4497
21
-12.1433
0
LINE
8
BLACK
6
CONTINUOUS
10
-16.4497
20
-12.1433
11
-16.3545
21
-12.191
0
LINE
8
BLACK
6
CONTINUOUS
10
-16.3545
20
-12.191
11
-16.3068
21
-12.2386
0
LINE
8
BLACK
6
CONTINUOUS
10
-16.3068
20
-12.2386
11
-16.2592
21
-12.3338
0
LINE
8
BLACK
6
CONTINUOUS
10
-16.2592
20
-12.3338
11
-16.2592
21
-12.5719
0
LINE
8
BLACK
6
CONTINUOUS
10
-16.2592
20
-12.5719
11
-16.3068
21
-12.6671
0
LINE
8
BLACK
6
CONTINUOUS
10
-16.3068
20
-12.6671
11
-16.3545
21
-12.7148
0
LINE
8
BLACK
6
CONTINUOUS
10
-16.3545
20
-12.7148
11
-16.4497
21
-12.7624
0
LINE
8
BLACK
6
CONTINUOUS
10
-16.4497
20
-12.7624
11
-16.7354
21
-12.7624
0
LINE
8
BLACK
6
CONTINUOUS
10
-16.7354
20
-12.7624
11
-16.8306
21
-12.7148
0
LINE
8
BLACK
6
CONTINUOUS
10
-16.8306
20
-12.7148
11
-16.8783
21
-12.6671
0
LINE
8
BLACK
6
CONTINUOUS
10
-15.0687
20
-12.7624
11
-15.0687
21
-12.0957
0
LINE
8
BLACK
6
CONTINUOUS
10
-15.0687
20
-12.191
11
-15.0211
21
-12.1433
0
LINE
8
BLACK
6
CONTINUOUS
10
-15.0211
20
-12.1433
11
-14.9259
21
-12.0957
0
LINE
8
BLACK
6
CONTINUOUS
10
-14.9259
20
-12.0957
11
-14.783
21
-12.0957
0
LINE
8
BLACK
6
CONTINUOUS
10
-14.783
20
-12.0957
11
-14.6878
21
-12.1433
0
LINE
8
BLACK
6
CONTINUOUS
10
-14.6878
20
-12.1433
11
-14.6402
21
-12.2386
0
LINE
8
BLACK
6
CONTINUOUS
10
-14.6402
20
-12.2386
11
-14.6402
21
-12.7624
0
LINE
8
BLACK
6
CONTINUOUS
10
-14.6402
20
-12.2386
11
-14.5925
21
-12.1433
0
LINE
8
BLACK
6
CONTINUOUS
10
-14.5925
20
-12.1433
11
-14.4973
21
-12.0957
0
LINE
8
BLACK
6
CONTINUOUS
10
-14.4973
20
-12.0957
11
-14.3545
21
-12.0957
0
LINE
8
BLACK
6
CONTINUOUS
10
-14.3545
20
-12.0957
11
-14.2592
21
-12.1433
0
LINE
8
BLACK
6
CONTINUOUS
10
-14.2592
20
-12.1433
11
-14.2116
21
-12.2386
0
LINE
8
BLACK
6
CONTINUOUS
10
-14.2116
20
-12.2386
11
-14.2116
21
-12.7624
0
LINE
8
BLACK
6
CONTINUOUS
10
-13.7354
20
-12.7624
11
-13.7354
21
-12.0957
0
LINE
8
BLACK
6
CONTINUOUS
10
-13.7354
20
-12.191
11
-13.6878
21
-12.1433
0
LINE
8
BLACK
6
CONTINUOUS
10
-13.6878
20
-12.1433
11
-13.5925
21
-12.0957
0
LINE
8
BLACK
6
CONTINUOUS
10
-13.5925
20
-12.0957
11
-13.4497
21
-12.0957
0
LINE
8
BLACK
6
CONTINUOUS
10
-13.4497
20
-12.0957
11
-13.3545
21
-12.1433
0
LINE
8
BLACK
6
CONTINUOUS
10
-13.3545
20
-12.1433
11
-13.3068
21
-12.2386
0
LINE
8
BLACK
6
CONTINUOUS
10
-13.3068
20
-12.2386
11
-13.3068
21
-12.7624
0
LINE
8
BLACK
6
CONTINUOUS
10
-13.3068
20
-12.2386
11
-13.2592
21
-12.1433
0
LINE
8
BLACK
6
CONTINUOUS
10
-13.2592
20
-12.1433
11
-13.164
21
-12.0957
0
LINE
8
BLACK
6
CONTINUOUS
10
-13.164
20
-12.0957
11
-13.0211
21
-12.0957
0
LINE
8
BLACK
6
CONTINUOUS
10
-13.0211
20
-12.0957
11
-12.9259
21
-12.1433
0
LINE
8
BLACK
6
CONTINUOUS
10
-12.9259
20
-12.1433
11
-12.8783
21
-12.2386
0
LINE
8
BLACK
6
CONTINUOUS
10
-12.8783
20
-12.2386
11
-12.8783
21
-12.7624
0
LINE
8
BLACK
6
CONTINUOUS
10
-3.632
20
-13.51
11
-30.315
21
-13.51
0
LINE
8
BLACK
6
CONTINUOUS
10
-3.632
20
-14.562
11
-3.632
21
-12.9236
0
LINE
8
BLACK
6
CONTINUOUS
10
-30.315
20
-14.562
11
-30.315
21
-12.9236
0
LINE
8
BLACK
6
CONTINUOUS
10
-30.315
20
-13.51
11
-29.1885
21
-12.9236
0
LINE
8
BLACK
6
CONTINUOUS
10
-30.315
20
-13.51
11
-29.1885
21
-14.0964
0
LINE
8
BLACK
6
CONTINUOUS
10
-3.632
20
-13.51
11
-4.7585
21
-12.9236
0
LINE
8
BLACK
6
CONTINUOUS
10
-3.632
20
-13.51
11
-4.7585
21
-14.0964
0
LINE
8
BLACK
6
CONTINUOUS
10
0.81238
20
-38.5515
11
0.81238
21
-37.9324
0
LINE
8
BLACK
6
CONTINUOUS
10
0.81238
20
-37.9324
11
1.19333
21
-38.2658
0
LINE
8
BLACK
6
CONTINUOUS
10
1.19333
20
-38.2658
11
1.19333
21
-38.1229
0
LINE
8
BLACK
6
CONTINUOUS
10
1.19333
20
-38.1229
11
1.24095
21
-38.0277
0
LINE
8
BLACK
6
CONTINUOUS
10
1.24095
20
-38.0277
11
1.28857
21
-37.98
0
LINE
8
BLACK
6
CONTINUOUS
10
1.28857
20
-37.98
11
1.38381
21
-37.9324
0
LINE
8
BLACK
6
CONTINUOUS
10
1.38381
20
-37.9324
11
1.6219
21
-37.9324
0
LINE
8
BLACK
6
CONTINUOUS
10
1.6219
20
-37.9324
11
1.71714
21
-37.98
0
LINE
8
BLACK
6
CONTINUOUS
10
1.71714
20
-37.98
11
1.76476
21
-38.0277
0
LINE
8
BLACK
6
CONTINUOUS
10
1.76476
20
-38.0277
11
1.81238
21
-38.1229
0
LINE
8
BLACK
6
CONTINUOUS
10
1.81238
20
-38.1229
11
1.81238
21
-38.4086
0
LINE
8
BLACK
6
CONTINUOUS
10
1.81238
20
-38.4086
11
1.76476
21
-38.5039
0
LINE
8
BLACK
6
CONTINUOUS
10
1.76476
20
-38.5039
11
1.71714
21
-38.5515
0
LINE
8
BLACK
6
CONTINUOUS
10
1.24095
20
-37.361
11
1.19333
21
-37.4562
0
LINE
8
BLACK
6
CONTINUOUS
10
1.19333
20
-37.4562
11
1.14571
21
-37.5039
0
LINE
8
BLACK
6
CONTINUOUS
10
1.14571
20
-37.5039
11
1.05048
21
-37.5515
0
LINE
8
BLACK
6
CONTINUOUS
10
1.05048
20
-37.5515
11
1.00286
21
-37.5515
0
LINE
8
BLACK
6
CONTINUOUS
10
1.00286
20
-37.5515
11
0.907619
21
-37.5039
0
LINE
8
BLACK
6
CONTINUOUS
10
0.907619
20
-37.5039
11
0.859999
21
-37.4562
0
LINE
8
BLACK
6
CONTINUOUS
10
0.859999
20
-37.4562
11
0.81238
21
-37.361
0
LINE
8
BLACK
6
CONTINUOUS
10
0.81238
20
-37.361
11
0.81238
21
-37.1705
0
LINE
8
BLACK
6
CONTINUOUS
10
0.81238
20
-37.1705
11
0.859999
21
-37.0753
0
LINE
8
BLACK
6
CONTINUOUS
10
0.859999
20
-37.0753
11
0.907619
21
-37.0277
0
LINE
8
BLACK
6
CONTINUOUS
10
0.907619
20
-37.0277
11
1.00286
21
-36.98
0
LINE
8
BLACK
6
CONTINUOUS
10
1.00286
20
-36.98
11
1.05048
21
-36.98
0
LINE
8
BLACK
6
CONTINUOUS
10
1.05048
20
-36.98
11
1.14571
21
-37.0277
0
LINE
8
BLACK
6
CONTINUOUS
10
1.14571
20
-37.0277
11
1.19333
21
-37.0753
0
LINE
8
BLACK
6
CONTINUOUS
10
1.19333
20
-37.0753
11
1.24095
21
-37.1705
0
LINE
8
BLACK
6
CONTINUOUS
10
1.24095
20
-37.1705
11
1.24095
21
-37.361
0
LINE
8
BLACK
6
CONTINUOUS
10
1.24095
20
-37.361
11
1.28857
21
-37.4562
0
LINE
8
BLACK
6
CONTINUOUS
10
1.28857
20
-37.4562
11
1.33619
21
-37.5039
0
LINE
8
BLACK
6
CONTINUOUS
10
1.33619
20
-37.5039
11
1.43143
21
-37.5515
0
LINE
8
BLACK
6
CONTINUOUS
10
1.43143
20
-37.5515
11
1.6219
21
-37.5515
0
LINE
8
BLACK
6
CONTINUOUS
10
1.6219
20
-37.5515
11
1.71714
21
-37.5039
0
LINE
8
BLACK
6
CONTINUOUS
10
1.71714
20
-37.5039
11
1.76476
21
-37.4562
0
LINE
8
BLACK
6
CONTINUOUS
10
1.76476
20
-37.4562
11
1.81238
21
-37.361
0
LINE
8
BLACK
6
CONTINUOUS
10
1.81238
20
-37.361
11
1.81238
21
-37.1705
0
LINE
8
BLACK
6
CONTINUOUS
10
1.81238
20
-37.1705
11
1.76476
21
-37.0753
0
LINE
8
BLACK
6
CONTINUOUS
10
1.76476
20
-37.0753
11
1.71714
21
-37.0277
0
LINE
8
BLACK
6
CONTINUOUS
10
1.71714
20
-37.0277
11
1.6219
21
-36.98
0
LINE
8
BLACK
6
CONTINUOUS
10
1.6219
20
-36.98
11
1.43143
21
-36.98
0
LINE
8
BLACK
6
CONTINUOUS
10
1.43143
20
-36.98
11
1.33619
21
-37.0277
0
LINE
8
BLACK
6
CONTINUOUS
10
1.33619
20
-37.0277
11
1.28857
21
-37.0753
0
LINE
8
BLACK
6
CONTINUOUS
10
1.28857
20
-37.0753
11
1.24095
21
-37.1705
0
LINE
8
BLACK
6
CONTINUOUS
10
1.71714
20
-36.5515
11
1.76476
21
-36.5039
0
LINE
8
BLACK
6
CONTINUOUS
10
1.76476
20
-36.5039
11
1.81238
21
-36.5515
0
LINE
8
BLACK
6
CONTINUOUS
10
1.81238
20
-36.5515
11
1.76476
21
-36.5991
0
LINE
8
BLACK
6
CONTINUOUS
10
1.76476
20
-36.5991
11
1.71714
21
-36.5515
0
LINE
8
BLACK
6
CONTINUOUS
10
1.71714
20
-36.5515
11
1.81238
21
-36.5515
0
LINE
8
BLACK
6
CONTINUOUS
10
0.81238
20
-35.5991
11
0.81238
21
-36.0753
0
LINE
8
BLACK
6
CONTINUOUS
10
0.81238
20
-36.0753
11
1.28857
21
-36.1229
0
LINE
8
BLACK
6
CONTINUOUS
10
1.28857
20
-36.1229
11
1.24095
21
-36.0753
0
LINE
8
BLACK
6
CONTINUOUS
10
1.24095
20
-36.0753
11
1.19333
21
-35.98
0
LINE
8
BLACK
6
CONTINUOUS
10
1.19333
20
-35.98
11
1.19333
21
-35.742
0
LINE
8
BLACK
6
CONTINUOUS
10
1.19333
20
-35.742
11
1.24095
21
-35.6467
0
LINE
8
BLACK
6
CONTINUOUS
10
1.24095
20
-35.6467
11
1.28857
21
-35.5991
0
LINE
8
BLACK
6
CONTINUOUS
10
1.28857
20
-35.5991
11
1.38381
21
-35.5515
0
LINE
8
BLACK
6
CONTINUOUS
10
1.38381
20
-35.5515
11
1.6219
21
-35.5515
0
LINE
8
BLACK
6
CONTINUOUS
10
1.6219
20
-35.5515
11
1.71714
21
-35.5991
0
LINE
8
BLACK
6
CONTINUOUS
10
1.71714
20
-35.5991
11
1.76476
21
-35.6467
0
LINE
8
BLACK
6
CONTINUOUS
10
1.76476
20
-35.6467
11
1.81238
21
-35.742
0
LINE
8
BLACK
6
CONTINUOUS
10
1.81238
20
-35.742
11
1.81238
21
-35.98
0
LINE
8
BLACK
6
CONTINUOUS
10
1.81238
20
-35.98
11
1.76476
21
-36.0753
0
LINE
8
BLACK
6
CONTINUOUS
10
1.76476
20
-36.0753
11
1.71714
21
-36.1229
0
LINE
8
BLACK
6
CONTINUOUS
10
1.81238
20
-35.0753
11
1.81238
21
-34.8848
0
LINE
8
BLACK
6
CONTINUOUS
10
1.81238
20
-34.8848
11
1.76476
21
-34.7896
0
LINE
8
BLACK
6
CONTINUOUS
10
1.76476
20
-34.7896
11
1.71714
21
-34.742
0
LINE
8
BLACK
6
CONTINUOUS
10
1.71714
20
-34.742
11
1.57428
21
-34.6467
0
LINE
8
BLACK
6
CONTINUOUS
10
1.57428
20
-34.6467
11
1.38381
21
-34.5991
0
LINE
8
BLACK
6
CONTINUOUS
10
1.38381
20
-34.5991
11
1.00286
21
-34.5991
0
LINE
8
BLACK
6
CONTINUOUS
10
1.00286
20
-34.5991
11
0.907619
21
-34.6467
0
LINE
8
BLACK
6
CONTINUOUS
10
0.907619
20
-34.6467
11
0.86
21
-34.6943
0
LINE
8
BLACK
6
CONTINUOUS
10
0.86
20
-34.6943
11
0.81238
21
-34.7896
0
LINE
8
BLACK
6
CONTINUOUS
10
0.81238
20
-34.7896
11
0.81238
21
-34.98
0
LINE
8
BLACK
6
CONTINUOUS
10
0.81238
20
-34.98
11
0.86
21
-35.0753
0
LINE
8
BLACK
6
CONTINUOUS
10
0.86
20
-35.0753
11
0.907619
21
-35.1229
0
LINE
8
BLACK
6
CONTINUOUS
10
0.907619
20
-35.1229
11
1.00286
21
-35.1705
0
LINE
8
BLACK
6
CONTINUOUS
10
1.00286
20
-35.1705
11
1.24095
21
-35.1705
0
LINE
8
BLACK
6
CONTINUOUS
10
1.24095
20
-35.1705
11
1.33619
21
-35.1229
0
LINE
8
BLACK
6
CONTINUOUS
10
1.33619
20
-35.1229
11
1.38381
21
-35.0753
0
LINE
8
BLACK
6
CONTINUOUS
10
1.38381
20
-35.0753
11
1.43143
21
-34.98
0
LINE
8
BLACK
6
CONTINUOUS
10
1.43143
20
-34.98
11
1.43143
21
-34.7896
0
LINE
8
BLACK
6
CONTINUOUS
10
1.43143
20
-34.7896
11
1.38381
21
-34.6943
0
LINE
8
BLACK
6
CONTINUOUS
10
1.38381
20
-34.6943
11
1.33619
21
-34.6467
0
LINE
8
BLACK
6
CONTINUOUS
10
1.33619
20
-34.6467
11
1.24095
21
-34.5991
0
LINE
8
BLACK
6
CONTINUOUS
10
1.24095
20
-34.0277
11
1.19333
21
-34.1229
0
LINE
8
BLACK
6
CONTINUOUS
10
1.19333
20
-34.1229
11
1.14571
21
-34.1705
0
LINE
8
BLACK
6
CONTINUOUS
10
1.14571
20
-34.1705
11
1.05048
21
-34.2181
0
LINE
8
BLACK
6
CONTINUOUS
10
1.05048
20
-34.2181
11
1.00286
21
-34.2181
0
LINE
8
BLACK
6
CONTINUOUS
10
1.00286
20
-34.2181
11
0.907619
21
-34.1705
0
LINE
8
BLACK
6
CONTINUOUS
10
0.907619
20
-34.1705
11
0.86
21
-34.1229
0
LINE
8
BLACK
6
CONTINUOUS
10
0.86
20
-34.1229
11
0.81238
21
-34.0277
0
LINE
8
BLACK
6
CONTINUOUS
10
0.81238
20
-34.0277
11
0.81238
21
-33.8372
0
LINE
8
BLACK
6
CONTINUOUS
10
0.81238
20
-33.8372
11
0.86
21
-33.742
0
LINE
8
BLACK
6
CONTINUOUS
10
0.86
20
-33.742
11
0.907619
21
-33.6943
0
LINE
8
BLACK
6
CONTINUOUS
10
0.907619
20
-33.6943
11
1.00286
21
-33.6467
0
LINE
8
BLACK
6
CONTINUOUS
10
1.00286
20
-33.6467
11
1.05048
21
-33.6467
0
LINE
8
BLACK
6
CONTINUOUS
10
1.05048
20
-33.6467
11
1.14571
21
-33.6943
0
LINE
8
BLACK
6
CONTINUOUS
10
1.14571
20
-33.6943
11
1.19333
21
-33.742
0
LINE
8
BLACK
6
CONTINUOUS
10
1.19333
20
-33.742
11
1.24095
21
-33.8372
0
LINE
8
BLACK
6
CONTINUOUS
10
1.24095
20
-33.8372
11
1.24095
21
-34.0277
0
LINE
8
BLACK
6
CONTINUOUS
10
1.24095
20
-34.0277
11
1.28857
21
-34.1229
0
LINE
8
BLACK
6
CONTINUOUS
10
1.28857
20
-34.1229
11
1.33619
21
-34.1705
0
LINE
8
BLACK
6
CONTINUOUS
10
1.33619
20
-34.1705
11
1.43143
21
-34.2181
0
LINE
8
BLACK
6
CONTINUOUS
10
1.43143
20
-34.2181
11
1.6219
21
-34.2181
0
LINE
8
BLACK
6
CONTINUOUS
10
1.6219
20
-34.2181
11
1.71714
21
-34.1705
0
LINE
8
BLACK
6
CONTINUOUS
10
1.71714
20
-34.1705
11
1.76476
21
-34.1229
0
LINE
8
BLACK
6
CONTINUOUS
10
1.76476
20
-34.1229
11
1.81238
21
-34.0277
0
LINE
8
BLACK
6
CONTINUOUS
10
1.81238
20
-34.0277
11
1.81238
21
-33.8372
0
LINE
8
BLACK
6
CONTINUOUS
10
1.81238
20
-33.8372
11
1.76476
21
-33.742
0
LINE
8
BLACK
6
CONTINUOUS
10
1.76476
20
-33.742
11
1.71714
21
-33.6943
0
LINE
8
BLACK
6
CONTINUOUS
10
1.71714
20
-33.6943
11
1.6219
21
-33.6467
0
LINE
8
BLACK
6
CONTINUOUS
10
1.6219
20
-33.6467
11
1.43143
21
-33.6467
0
LINE
8
BLACK
6
CONTINUOUS
10
1.43143
20
-33.6467
11
1.33619
21
-33.6943
0
LINE
8
BLACK
6
CONTINUOUS
10
1.33619
20
-33.6943
11
1.28857
21
-33.742
0
LINE
8
BLACK
6
CONTINUOUS
10
1.28857
20
-33.742
11
1.24095
21
-33.8372
0
LINE
8
BLACK
6
CONTINUOUS
10
1.81238
20
-32.4562
11
1.14571
21
-32.4562
0
LINE
8
BLACK
6
CONTINUOUS
10
1.24095
20
-32.4562
11
1.19333
21
-32.4086
0
LINE
8
BLACK
6
CONTINUOUS
10
1.19333
20
-32.4086
11
1.14571
21
-32.3134
0
LINE
8
BLACK
6
CONTINUOUS
10
1.14571
20
-32.3134
11
1.14571
21
-32.1705
0
LINE
8
BLACK
6
CONTINUOUS
10
1.14571
20
-32.1705
11
1.19333
21
-32.0753
0
LINE
8
BLACK
6
CONTINUOUS
10
1.19333
20
-32.0753
11
1.28857
21
-32.0277
0
LINE
8
BLACK
6
CONTINUOUS
10
1.28857
20
-32.0277
11
1.81238
21
-32.0277
0
LINE
8
BLACK
6
CONTINUOUS
10
1.28857
20
-32.0277
11
1.19333
21
-31.98
0
LINE
8
BLACK
6
CONTINUOUS
10
1.19333
20
-31.98
11
1.14571
21
-31.8848
0
LINE
8
BLACK
6
CONTINUOUS
10
1.14571
20
-31.8848
11
1.14571
21
-31.742
0
LINE
8
BLACK
6
CONTINUOUS
10
1.14571
20
-31.742
11
1.19333
21
-31.6467
0
LINE
8
BLACK
6
CONTINUOUS
10
1.19333
20
-31.6467
11
1.28857
21
-31.5991
0
LINE
8
BLACK
6
CONTINUOUS
10
1.28857
20
-31.5991
11
1.81238
21
-31.5991
0
LINE
8
BLACK
6
CONTINUOUS
10
1.81238
20
-31.1229
11
1.14571
21
-31.1229
0
LINE
8
BLACK
6
CONTINUOUS
10
1.24095
20
-31.1229
11
1.19333
21
-31.0753
0
LINE
8
BLACK
6
CONTINUOUS
10
1.19333
20
-31.0753
11
1.14571
21
-30.98
0
LINE
8
BLACK
6
CONTINUOUS
10
1.14571
20
-30.98
11
1.14571
21
-30.8372
0
LINE
8
BLACK
6
CONTINUOUS
10
1.14571
20
-30.8372
11
1.19333
21
-30.742
0
LINE
8
BLACK
6
CONTINUOUS
10
1.19333
20
-30.742
11
1.28857
21
-30.6943
0
LINE
8
BLACK
6
CONTINUOUS
10
1.28857
20
-30.6943
11
1.81238
21
-30.6943
0
LINE
8
BLACK
6
CONTINUOUS
10
1.28857
20
-30.6943
11
1.19333
21
-30.6467
0
LINE
8
BLACK
6
CONTINUOUS
10
1.19333
20
-30.6467
11
1.14571
21
-30.5515
0
LINE
8
BLACK
6
CONTINUOUS
10
1.14571
20
-30.5515
11
1.14571
21
-30.4086
0
LINE
8
BLACK
6
CONTINUOUS
10
1.14571
20
-30.4086
11
1.19333
21
-30.3134
0
LINE
8
BLACK
6
CONTINUOUS
10
1.19333
20
-30.3134
11
1.28857
21
-30.2658
0
LINE
8
BLACK
6
CONTINUOUS
10
1.28857
20
-30.2658
11
1.81238
21
-30.2658
0
LINE
8
BLACK
6
CONTINUOUS
10
0.16
20
-53.66
11
0.16
21
-15.062
0
LINE
8
BLACK
6
CONTINUOUS
10
-2.132
20
-53.66
11
0.746421
21
-53.66
0
LINE
8
BLACK
6
CONTINUOUS
10
-2.132
20
-15.062
11
0.746421
21
-15.062
0
LINE
8
BLACK
6
CONTINUOUS
10
0.16
20
-15.062
11
0.746421
21
-16.1885
0
LINE
8
BLACK
6
CONTINUOUS
10
0.16
20
-15.062
11
-0.426421
21
-16.1885
0
LINE
8
BLACK
6
CONTINUOUS
10
0.16
20
-53.66
11
0.746421
21
-52.5335
0
LINE
8
BLACK
6
CONTINUOUS
10
0.16
20
-53.66
11
-0.426421
21
-52.5335
0
ARC
8
BLACK
10
-29.815
20
-53.16
40
0.5
50
180
51
270
0
LINE
8
BLACK
6
CONTINUOUS
10
-4.132
20
-53.66
11
-29.815
21
-53.66
0
ARC
8
BLACK
10
-4.132
20
-53.16
40
0.5
50
-90
51
-0
0
LINE
8
BLACK
6
CONTINUOUS
10
-3.632
20
-15.562
11
-3.632
21
-53.16
0
ARC
8
BLACK
10
-4.132
20
-15.562
40
0.5
50
-0
51
90
0
LINE
8
BLACK
6
CONTINUOUS
10
-29.815
20
-15.062
11
-4.132
21
-15.062
0
ARC
8
BLACK
10
-29.815
20
-15.562
40
0.5
50
90
51
180
0
LINE
8
BLACK
6
CONTINUOUS
10
-30.315
20
-15.562
11
-30.315
21
-53.16
  0
ENDSEC
  0
EOF
